# xmcd
#
# Track frame offsets: 
#        150
#        17724
#        38067
#        56755
#        83102
#        106726
#        124555
#        152176
#        172294
#        195675
#
# Disc length: 2862 seconds
#
# Revision: 0
# Processed by: cddbd v1.5.2PL0 Copyright (c) Steve Scherf et al.
# Submitted via: ExactAudioCopy v0.95a5
#
DISCID=7e0b2c0a
DTITLE=胡琳 - Jazz them up
DYEAR=2011
DGENRE=Jazz
TTITLE0=01 我是不是该安静的走开
TTITLE1=02 暗里着迷
TTITLE2=03 Oh 夜
TTITLE3=04 忘情水
TTITLE4=05 你是我的女人
TTITLE5=06 头发乱了
TTITLE6=07 哪有一天不想你
TTITLE7=08 他的女人
TTITLE8=09 每天爱你多一些
TTITLE9=10 我为何让你走
EXTD=
EXTT0=
EXTT1=
EXTT2=
EXTT3=
EXTT4=
EXTT5=
EXTT6=
EXTT7=
EXTT8=
EXTT9=
PLAYORDER=
